<svg xmlns="http://www.w3.org/2000/svg" viewBox="50.7 275.32 922.55 217.38"><g style="font-style:normal;font-weight:700;font-size:72px;line-height:1;font-family:&quot;Brandmark1 Bold Color&quot;;font-variant-ligatures:normal;text-align:center;text-anchor:middle"><g fill="#615fff" aria-label="K"><path d="m157.395 296.439-67.694 81.78v-81.78H50.7v193.77H89.7v-54.432l118.397-139.338z" class="c1" /><path d="M173.292 442.462h-48.433l34.7 47.746h48.616z" class="c3" /></g><path
      fill="#615fff"
      d="M212.41 470.578c-13.166-13.167-20.619-30.805-20.619-49.436 0-18.88 7.453-36.27 20.619-49.685 13.166-13.166 30.804-20.37 49.436-20.37 18.631 0 36.27 7.204 49.435 20.37 13.416 13.415 20.62 30.805 20.62 49.685v17.886h-98.872c6.21 9.689 16.644 15.9 28.817 15.9 9.44 0 18.383-3.727 24.842-10.683l26.084 24.842c-6.459 6.956-14.16 12.173-22.606 16.148-8.943 3.726-18.384 5.713-28.32 5.713-18.632 0-36.27-7.204-49.436-20.37m78.253-67.57c-5.962-9.441-16.644-15.9-28.817-15.9s-22.606 6.459-28.817 15.9z"
      aria-label="e"
      class="c1"
    /><path fill="#615fff" d="M379.27 346.864v143.34H341.76V359.284z" aria-label="i" class="c1" /><path fill="#615fff" d="M480.159 386.866h-39.5V490.21h-37.262V352.087q0-15.65 5.962-29.81c3.974-9.192 9.44-17.39 16.644-24.594 6.955-6.956 15.153-12.421 24.345-16.396q14.16-5.962 29.81-5.962v37.263c-21.86 0-39.498 17.638-39.498 39.5h39.499z" aria-label="f" class="c1" /><path fill="#615fff" d="M561.914 455.428v37.263q-15.65 0-29.81-5.962c-9.191-3.726-17.39-9.44-24.346-16.396-7.204-6.956-12.67-15.154-16.643-24.345-3.976-9.44-5.964-19.626-5.964-30.06V319.79l37.265-12.421v44.467h39.498v34.779h-39.498v29.314c0 21.86 17.637 39.499 39.498 39.499" aria-label="t" class="c1" /><path
      fill="#615fff"
      d="M693.743 483.502a97.8 97.8 0 0 1-31.153-20.992 97.8 97.8 0 0 1-20.992-31.153c-5.117-12.098-7.702-24.941-7.702-38.157s2.585-26.06 7.702-38.157a97.8 97.8 0 0 1 20.992-31.153 97.8 97.8 0 0 1 31.153-20.991c12.098-5.118 24.941-7.702 38.155-7.702 13.217 0 26.06 2.584 38.159 7.702a97.7 97.7 0 0 1 31.151 20.991 97.7 97.7 0 0 1 20.993 31.153c5.118 12.097 7.702 24.942 7.702 38.157s-2.584 26.059-7.702 38.157a97.7 97.7 0 0 1-20.993 31.153 97.7 97.7 0 0 1-31.151 20.992c-12.099 5.117-24.942 7.7-38.159 7.7-13.214 0-26.057-2.583-38.155-7.7m-3.578-132.012c-11.156 11.154-17.29 25.96-17.29 41.736 0 15.774 6.134 30.58 17.29 41.733 11.155 11.155 25.959 17.29 41.733 17.29 15.778 0 30.582-6.135 41.737-17.29 11.152-11.153 17.29-25.96 17.29-41.733 0-15.776-6.138-30.582-17.29-41.736-11.155-11.153-25.986-17.29-41.737-17.29-15.747 0-30.578 6.137-41.733 17.29"
      aria-label="O"
      class="c1"
    /><path
      fill="#615fff"
      d="m836.706 461.614-5.242-5.616 25.662-30.703 6.631 8.322c5.192 6.509 11.974 11.849 19.578 15.427 7.153 3.377 14.878 5.141 22.33 5.141 8.798 0 16.297-1.937 21.118-5.44 4.347-3.155 6.46-7.378 6.46-12.942 0-6.063-1.864-9.812-6.608-13.365-5.468-4.075-14.312-7.404-24.57-11.278-.87-.324-1.763-.67-2.683-1.02-14.086-5.24-27.623-10.63-38.482-19.276-6.309-5.018-10.978-10.559-14.284-16.918-3.675-7.055-5.538-15.079-5.538-23.849 0-15.277 6.608-29.412 18.582-39.798 11.627-10.06 27.25-15.599 44.021-15.599 21.66 0 42.802 7.8 61.11 22.531l6.61 5.342-23.827 31.003-6.953-5.714c-12.247-10.11-25.714-15.9-36.94-15.9-10.434 0-22.657 4.522-22.856 17.266-.074 5.689 2.658 8.793 6.806 11.701 5.94 4.173 15.376 7.774 25.366 11.6l.098.025c1.566.622 3.13 1.243 4.696 1.838 14.134 5.54 27.5 10.758 37.634 19.105 11.973 9.887 17.812 22.903 17.812 39.821 0 9.168-1.96 17.688-5.839 25.338-3.652 7.156-8.867 13.392-15.575 18.534-12.22 9.339-28.692 14.507-46.403 14.507-26.185 0-50.58-10.68-68.714-30.083"
      aria-label="S"
      class="c1"
    /></g></svg>
